<svg viewBox="0 0 99 40" fill="none" xmlns="http://www.w3.org/2000/svg">
<path d="M5.82399 39.176C4.83199 39.176 3.88799 39.032 2.99199 38.744C2.09599 38.488 1.32799 37.912 0.687988 37.016C1.07199 35.192 1.55199 33.192 2.12799 31.016C2.73599 28.808 3.37599 26.584 4.04799 24.344C4.71999 22.104 5.37599 19.976 6.01599 17.96C6.68799 15.912 7.27999 14.12 7.79199 12.584C8.30399 11.048 8.70399 9.912 8.99199 9.176C9.11999 8.824 9.35999 8.296 9.71199 7.592C10.064 6.856 10.496 6.184 11.008 5.576C11.52 4.968 12.096 4.664 12.736 4.664C13.184 4.664 13.632 4.824 14.08 5.144C13.088 7.448 12.08 9.992 11.056 12.776C10.064 15.56 9.10399 18.44 8.17599 21.416C7.24799 24.36 6.39999 27.24 5.63199 30.056C4.86399 32.872 4.22399 35.432 3.71199 37.736C4.47999 37.864 5.16799 37.928 5.77599 37.928C7.82399 37.928 9.79199 37.448 11.68 36.488C13.6 35.56 15.376 34.28 17.008 32.648C18.672 30.984 20.128 29.096 21.376 26.984C22.624 24.84 23.584 22.584 24.256 20.216C24.96 17.816 25.312 15.432 25.312 13.064C25.312 9.16 24.4 6.296 22.576 4.472C20.752 2.648 18.384 1.736 15.472 1.736C13.392 1.736 11.52 2.152 9.85599 2.984C8.19199 3.816 6.87999 4.936 5.91999 6.344C4.95999 7.752 4.47999 9.336 4.47999 11.096C4.47999 11.8 4.55999 12.392 4.71999 12.872C3.66399 12.872 2.91199 12.616 2.46399 12.104C2.04799 11.56 1.83999 10.92 1.83999 10.184C1.83999 9.064 2.22399 7.944 2.99199 6.824C3.79199 5.672 4.87999 4.616 6.25599 3.656C7.66399 2.696 9.27999 1.928 11.104 1.352C12.928 0.744002 14.864 0.440002 16.912 0.440002C19.792 0.440002 22.096 1.032 23.824 2.216C25.584 3.368 26.864 4.936 27.664 6.92C28.464 8.904 28.864 11.128 28.864 13.592C28.864 16.376 28.432 19.048 27.568 21.608C26.704 24.136 25.504 26.472 23.968 28.616C22.464 30.728 20.736 32.584 18.784 34.184C16.832 35.752 14.736 36.968 12.496 37.832C10.288 38.728 8.06399 39.176 5.82399 39.176Z" fill="black"/>
<path d="M31.1946 37.256C30.2026 37.256 29.3706 36.92 28.6986 36.248C27.9946 35.608 27.6426 34.616 27.6426 33.272C27.6426 32.12 27.8986 30.888 28.4106 29.576C28.9226 28.232 29.6266 26.92 30.5226 25.64C31.4186 24.328 32.4266 23.144 33.5466 22.088C34.6986 21 35.8986 20.136 37.1466 19.496C38.4266 18.856 39.6906 18.536 40.9386 18.536C42.1866 18.536 43.2266 18.872 44.0586 19.544C44.8906 20.184 45.3066 21.048 45.3066 22.136C45.3066 22.936 45.0826 23.48 44.6346 23.768C44.2186 24.056 43.6586 24.2 42.9546 24.2C43.1146 23.624 43.1946 23.064 43.1946 22.52C43.1946 21.784 43.0186 21.16 42.6666 20.648C42.3146 20.104 41.7066 19.832 40.8426 19.832C39.9466 19.832 39.0346 20.152 38.1066 20.792C37.1786 21.4 36.2826 22.232 35.4186 23.288C34.5546 24.312 33.7866 25.432 33.1146 26.648C32.4426 27.864 31.9146 29.064 31.5306 30.248C31.1466 31.432 30.9546 32.488 30.9546 33.416C30.9546 34.664 31.3866 35.288 32.2506 35.288C32.9866 35.288 33.7866 34.952 34.6506 34.28C35.5146 33.576 36.3946 32.696 37.2906 31.64C38.2186 30.552 39.0986 29.432 39.9306 28.28C40.7626 27.128 41.4986 26.072 42.1386 25.112C42.2666 24.92 42.3466 24.824 42.3786 24.824C42.6666 24.856 43.0506 24.984 43.5306 25.208C44.0106 25.4 44.2506 25.672 44.2506 26.024C44.2506 26.312 44.1066 26.712 43.8186 27.224C43.5306 27.704 43.2106 28.264 42.8586 28.904C42.5066 29.544 42.1866 30.2 41.8986 30.872C41.6106 31.512 41.4666 32.12 41.4666 32.696C41.4666 33.176 41.5946 33.656 41.8506 34.136C42.1066 34.584 42.5226 34.808 43.0986 34.808C43.9626 34.808 45.0986 34.184 46.5066 32.936C47.9146 31.656 49.3386 29.752 50.7786 27.224L51.2586 27.704C50.5866 29.432 49.7226 30.952 48.6666 32.264C47.6106 33.576 46.4746 34.6 45.2586 35.336C44.0746 36.072 42.9066 36.44 41.7546 36.44C40.5706 36.44 39.6906 36.088 39.1146 35.384C38.5706 34.68 38.2986 33.912 38.2986 33.08C38.2986 32.664 38.3466 32.2 38.4426 31.688C37.0666 33.544 35.8026 34.936 34.6506 35.864C33.5306 36.792 32.3786 37.256 31.1946 37.256Z" fill="black"/>
<path d="M59.0129 14.264C58.5009 14.264 58.0369 14.136 57.6209 13.88C57.2369 13.624 57.0449 13.224 57.0449 12.68C57.0449 12.008 57.4289 11.432 58.1969 10.952C58.9969 10.44 59.7809 10.184 60.5489 10.184C61.0289 10.184 61.4129 10.296 61.7009 10.52C61.9889 10.744 62.1329 11.128 62.1329 11.672C62.1329 12.28 61.7969 12.872 61.1249 13.448C60.4849 13.992 59.7809 14.264 59.0129 14.264ZM53.2529 36.248C52.0049 36.248 51.0769 35.848 50.4689 35.048C49.8609 34.28 49.5569 33.336 49.5569 32.216C49.5569 31.48 49.6849 30.552 49.9409 29.432C50.2289 28.312 50.5969 27.144 51.0449 25.928C51.4929 24.68 52.0049 23.512 52.5809 22.424C53.1889 21.336 53.8289 20.456 54.5009 19.784C55.1729 19.08 55.8289 18.728 56.4689 18.728C56.7569 18.728 56.9969 18.824 57.1889 19.016C57.4129 19.176 57.5249 19.432 57.5249 19.784C57.5249 20.168 57.2689 20.792 56.7569 21.656C56.2769 22.52 55.7009 23.512 55.0289 24.632C54.3569 25.752 53.7649 26.936 53.2529 28.184C52.7729 29.4 52.5329 30.568 52.5329 31.688C52.5329 32.84 52.7249 33.608 53.1089 33.992C53.4929 34.376 54.0849 34.568 54.8849 34.568C55.9729 34.568 57.1249 34.024 58.3409 32.936C59.5889 31.848 60.9009 29.944 62.2769 27.224L62.7089 27.704C61.7809 30.456 60.4369 32.568 58.6769 34.04C56.9489 35.512 55.1409 36.248 53.2529 36.248Z" fill="black"/>
<path d="M65.359 36.44C63.983 36.44 62.991 35.96 62.383 35C61.807 34.072 61.519 32.904 61.519 31.496C61.519 29.96 61.807 28.136 62.383 26.024C62.959 23.912 63.711 21.688 64.639 19.352C65.599 17.016 66.639 14.744 67.759 12.536C68.879 10.296 69.999 8.264 71.119 6.44C72.239 4.616 73.263 3.16 74.191 2.072C75.151 0.984002 75.903 0.440002 76.447 0.440002C76.799 0.440002 77.087 0.648003 77.311 1.064C77.535 1.448 77.711 1.928 77.839 2.504C77.967 3.048 78.031 3.544 78.031 3.992C78.031 4.856 77.807 5.992 77.359 7.4C76.943 8.776 76.335 10.328 75.535 12.056C74.767 13.752 73.839 15.48 72.751 17.24C71.695 18.968 70.527 20.632 69.247 22.232C67.999 23.832 66.671 25.208 65.263 26.36C65.071 27.224 64.911 28.072 64.783 28.904C64.687 29.704 64.639 30.472 64.639 31.208C64.639 33.672 65.343 34.904 66.751 34.904C67.615 34.904 68.463 34.52 69.295 33.752C70.159 32.984 70.959 32.024 71.695 30.872C72.463 29.688 73.119 28.472 73.663 27.224L74.383 27.608C73.103 30.328 71.711 32.488 70.207 34.088C68.703 35.656 67.087 36.44 65.359 36.44ZM65.695 24.728C66.815 23.608 67.903 22.328 68.959 20.888C70.015 19.416 70.991 17.896 71.887 16.328C72.815 14.76 73.631 13.24 74.335 11.768C75.039 10.296 75.583 8.984 75.967 7.832C76.351 6.648 76.543 5.736 76.543 5.096C76.543 4.776 76.495 4.568 76.399 4.472C76.335 4.376 76.271 4.328 76.207 4.328C75.951 4.328 75.503 4.744 74.863 5.576C74.255 6.376 73.535 7.464 72.703 8.84C71.871 10.216 71.023 11.784 70.159 13.544C69.295 15.304 68.463 17.144 67.663 19.064C66.895 20.984 66.239 22.872 65.695 24.728Z" fill="black"/>
<path d="M75.0227 37.256C74.0307 37.256 73.1987 36.92 72.5267 36.248C71.8227 35.608 71.4707 34.616 71.4707 33.272C71.4707 32.12 71.7267 30.888 72.2387 29.576C72.7507 28.232 73.4547 26.92 74.3507 25.64C75.2467 24.328 76.2547 23.144 77.3747 22.088C78.5267 21 79.7267 20.136 80.9747 19.496C82.2547 18.856 83.5187 18.536 84.7667 18.536C86.0147 18.536 87.0547 18.872 87.8867 19.544C88.7187 20.184 89.1347 21.048 89.1347 22.136C89.1347 22.936 88.9107 23.48 88.4627 23.768C88.0467 24.056 87.4867 24.2 86.7827 24.2C86.9427 23.624 87.0227 23.064 87.0227 22.52C87.0227 21.784 86.8467 21.16 86.4947 20.648C86.1427 20.104 85.5347 19.832 84.6707 19.832C83.7747 19.832 82.8627 20.152 81.9347 20.792C81.0067 21.4 80.1107 22.232 79.2467 23.288C78.3827 24.312 77.6147 25.432 76.9427 26.648C76.2707 27.864 75.7427 29.064 75.3587 30.248C74.9747 31.432 74.7827 32.488 74.7827 33.416C74.7827 34.664 75.2147 35.288 76.0787 35.288C76.8147 35.288 77.6147 34.952 78.4787 34.28C79.3427 33.576 80.2227 32.696 81.1187 31.64C82.0467 30.552 82.9267 29.432 83.7587 28.28C84.5907 27.128 85.3267 26.072 85.9667 25.112C86.0947 24.92 86.1747 24.824 86.2067 24.824C86.4947 24.856 86.8787 24.984 87.3587 25.208C87.8387 25.4 88.0787 25.672 88.0787 26.024C88.0787 26.312 87.9347 26.712 87.6467 27.224C87.3587 27.704 87.0387 28.264 86.6867 28.904C86.3347 29.544 86.0147 30.2 85.7267 30.872C85.4387 31.512 85.2947 32.12 85.2947 32.696C85.2947 33.176 85.4227 33.656 85.6787 34.136C85.9347 34.584 86.3507 34.808 86.9267 34.808C87.7907 34.808 88.9267 34.184 90.3347 32.936C91.7427 31.656 93.1667 29.752 94.6067 27.224L95.0867 27.704C94.4147 29.432 93.5507 30.952 92.4947 32.264C91.4387 33.576 90.3027 34.6 89.0867 35.336C87.9027 36.072 86.7347 36.44 85.5827 36.44C84.3987 36.44 83.5187 36.088 82.9427 35.384C82.3987 34.68 82.1267 33.912 82.1267 33.08C82.1267 32.664 82.1747 32.2 82.2707 31.688C80.8947 33.544 79.6307 34.936 78.4787 35.864C77.3587 36.792 76.2067 37.256 75.0227 37.256Z" fill="black"/>
<path d="M95.545 35.48C95.129 35.48 94.761 35.368 94.441 35.144C94.153 34.952 94.009 34.632 94.009 34.184C94.009 33.64 94.313 33.176 94.921 32.792C95.561 32.408 96.185 32.216 96.793 32.216C97.625 32.216 98.041 32.6 98.041 33.368C98.041 33.848 97.785 34.328 97.273 34.808C96.761 35.256 96.185 35.48 95.545 35.48Z" fill="black"/>
<path d="M95.545 35.48C95.129 35.48 94.761 35.368 94.441 35.144C94.153 34.952 94.009 34.632 94.009 34.184C94.009 33.64 94.313 33.176 94.921 32.792C95.561 32.408 96.185 32.216 96.793 32.216C97.625 32.216 98.041 32.6 98.041 33.368C98.041 33.848 97.785 34.328 97.273 34.808C96.761 35.256 96.185 35.48 95.545 35.48Z" fill="#3B82F6"/>
</svg>
